<svg id="visual" viewBox="0 0 1920 1080" width="1920" height="1080" xmlns="http://www.w3.org/2000/svg" xmlns:xlink="http://www.w3.org/1999/xlink" version="1.1"><rect x="0" y="0" width="1920" height="1080" fill="#148dce"></rect><path d="M0 514L24.7 534.3C49.3 554.7 98.7 595.3 147.8 579.8C197 564.3 246 492.7 295.2 490.7C344.3 488.7 393.7 556.3 443 571C492.3 585.7 541.7 547.3 590.8 540.5C640 533.7 689 558.3 738.2 555.7C787.3 553 836.7 523 886 528.5C935.3 534 984.7 575 1034 576.2C1083.3 577.3 1132.7 538.7 1181.8 536.3C1231 534 1280 568 1329.2 585.7C1378.3 603.3 1427.7 604.7 1477 577.7C1526.3 550.7 1575.7 495.3 1624.8 475C1674 454.7 1723 469.3 1772.2 498C1821.3 526.7 1870.7 569.3 1895.3 590.7L1920 612L1920 1081L1895.3 1081C1870.7 1081 1821.3 1081 1772.2 1081C1723 1081 1674 1081 1624.8 1081C1575.7 1081 1526.3 1081 1477 1081C1427.7 1081 1378.3 1081 1329.2 1081C1280 1081 1231 1081 1181.8 1081C1132.7 1081 1083.3 1081 1034 1081C984.7 1081 935.3 1081 886 1081C836.7 1081 787.3 1081 738.2 1081C689 1081 640 1081 590.8 1081C541.7 1081 492.3 1081 443 1081C393.7 1081 344.3 1081 295.2 1081C246 1081 197 1081 147.8 1081C98.7 1081 49.3 1081 24.7 1081L0 1081Z" fill="#00aaa6"></path><path d="M0 639L24.7 646.2C49.3 653.3 98.7 667.7 147.8 665.2C197 662.7 246 643.3 295.2 624.7C344.3 606 393.7 588 443 605.3C492.3 622.7 541.7 675.3 590.8 693.8C640 712.3 689 696.7 738.2 680.8C787.3 665 836.7 649 886 651.8C935.3 654.7 984.7 676.3 1034 688.7C1083.3 701 1132.7 704 1181.8 710C1231 716 1280 725 1329.2 717.7C1378.3 710.3 1427.7 686.7 1477 681.3C1526.3 676 1575.7 689 1624.8 681.3C1674 673.7 1723 645.3 1772.2 634.5C1821.3 623.7 1870.7 630.3 1895.3 633.7L1920 637L1920 1081L1895.3 1081C1870.7 1081 1821.3 1081 1772.2 1081C1723 1081 1674 1081 1624.8 1081C1575.7 1081 1526.3 1081 1477 1081C1427.7 1081 1378.3 1081 1329.2 1081C1280 1081 1231 1081 1181.8 1081C1132.7 1081 1083.3 1081 1034 1081C984.7 1081 935.3 1081 886 1081C836.7 1081 787.3 1081 738.2 1081C689 1081 640 1081 590.8 1081C541.7 1081 492.3 1081 443 1081C393.7 1081 344.3 1081 295.2 1081C246 1081 197 1081 147.8 1081C98.7 1081 49.3 1081 24.7 1081L0 1081Z" fill="#9fcd6f"></path><path d="M0 675L24.7 685.3C49.3 695.7 98.7 716.3 147.8 733.5C197 750.7 246 764.3 295.2 767.2C344.3 770 393.7 762 443 744.3C492.3 726.7 541.7 699.3 590.8 711.5C640 723.7 689 775.3 738.2 772.2C787.3 769 836.7 711 886 704C935.3 697 984.7 741 1034 744.8C1083.3 748.7 1132.7 712.3 1181.8 689.2C1231 666 1280 656 1329.2 682C1378.3 708 1427.7 770 1477 770.2C1526.3 770.3 1575.7 708.7 1624.8 690.5C1674 672.3 1723 697.7 1772.2 703C1821.3 708.3 1870.7 693.7 1895.3 686.3L1920 679L1920 1081L1895.3 1081C1870.7 1081 1821.3 1081 1772.2 1081C1723 1081 1674 1081 1624.8 1081C1575.7 1081 1526.3 1081 1477 1081C1427.7 1081 1378.3 1081 1329.2 1081C1280 1081 1231 1081 1181.8 1081C1132.7 1081 1083.3 1081 1034 1081C984.7 1081 935.3 1081 886 1081C836.7 1081 787.3 1081 738.2 1081C689 1081 640 1081 590.8 1081C541.7 1081 492.3 1081 443 1081C393.7 1081 344.3 1081 295.2 1081C246 1081 197 1081 147.8 1081C98.7 1081 49.3 1081 24.7 1081L0 1081Z" fill="#fdd162"></path><path d="M0 804L24.7 808C49.3 812 98.7 820 147.8 824C197 828 246 828 295.2 839.7C344.3 851.3 393.7 874.7 443 890C492.3 905.3 541.7 912.7 590.8 892.5C640 872.3 689 824.7 738.2 804.7C787.3 784.7 836.7 792.3 886 797.5C935.3 802.7 984.7 805.3 1034 824.2C1083.3 843 1132.7 878 1181.8 883.2C1231 888.3 1280 863.7 1329.2 855.5C1378.3 847.3 1427.7 855.7 1477 851.3C1526.3 847 1575.7 830 1624.8 826.5C1674 823 1723 833 1772.2 837.7C1821.3 842.3 1870.7 841.7 1895.3 841.3L1920 841L1920 1081L1895.3 1081C1870.7 1081 1821.3 1081 1772.2 1081C1723 1081 1674 1081 1624.8 1081C1575.7 1081 1526.3 1081 1477 1081C1427.7 1081 1378.3 1081 1329.2 1081C1280 1081 1231 1081 1181.8 1081C1132.7 1081 1083.3 1081 1034 1081C984.7 1081 935.3 1081 886 1081C836.7 1081 787.3 1081 738.2 1081C689 1081 640 1081 590.8 1081C541.7 1081 492.3 1081 443 1081C393.7 1081 344.3 1081 295.2 1081C246 1081 197 1081 147.8 1081C98.7 1081 49.3 1081 24.7 1081L0 1081Z" fill="#9fcd6f"></path><path d="M0 881L24.7 898.8C49.3 916.7 98.7 952.3 147.8 970.7C197 989 246 990 295.2 992.5C344.3 995 393.7 999 443 988C492.3 977 541.7 951 590.8 950.2C640 949.3 689 973.7 738.2 986.5C787.3 999.3 836.7 1000.7 886 992.7C935.3 984.7 984.7 967.3 1034 959.2C1083.3 951 1132.7 952 1181.8 958.3C1231 964.7 1280 976.3 1329.2 967.3C1378.3 958.3 1427.7 928.7 1477 926.3C1526.3 924 1575.7 949 1624.8 969.3C1674 989.7 1723 1005.3 1772.2 1012.3C1821.3 1019.3 1870.7 1017.7 1895.3 1016.8L1920 1016L1920 1081L1895.3 1081C1870.7 1081 1821.3 1081 1772.2 1081C1723 1081 1674 1081 1624.8 1081C1575.7 1081 1526.3 1081 1477 1081C1427.7 1081 1378.3 1081 1329.2 1081C1280 1081 1231 1081 1181.8 1081C1132.7 1081 1083.3 1081 1034 1081C984.7 1081 935.3 1081 886 1081C836.7 1081 787.3 1081 738.2 1081C689 1081 640 1081 590.8 1081C541.7 1081 492.3 1081 443 1081C393.7 1081 344.3 1081 295.2 1081C246 1081 197 1081 147.8 1081C98.7 1081 49.3 1081 24.7 1081L0 1081Z" fill="#00aaa6"></path></svg>