<svg id="visual" viewBox="0 0 1920 1920" width="1920" height="1920" xmlns="http://www.w3.org/2000/svg" xmlns:xlink="http://www.w3.org/1999/xlink" version="1.1"><rect x="0" y="0" width="1920" height="1920" fill="#148dce"></rect><path d="M0 925L26.7 950.3C53.3 975.7 106.7 1026.3 160 1042.8C213.3 1059.3 266.7 1041.7 320 1025.8C373.3 1010 426.7 996 480 1016.5C533.3 1037 586.7 1092 640 1097.8C693.3 1103.7 746.7 1060.3 800 1072.3C853.3 1084.3 906.7 1151.7 960 1135.8C1013.3 1120 1066.7 1021 1120 997.3C1173.3 973.7 1226.7 1025.3 1280 1054.8C1333.3 1084.3 1386.7 1091.7 1440 1102.5C1493.3 1113.3 1546.7 1127.7 1600 1124.8C1653.3 1122 1706.7 1102 1760 1094.8C1813.3 1087.7 1866.7 1093.3 1893.3 1096.2L1920 1099L1920 1921L1893.3 1921C1866.7 1921 1813.3 1921 1760 1921C1706.7 1921 1653.3 1921 1600 1921C1546.7 1921 1493.3 1921 1440 1921C1386.7 1921 1333.3 1921 1280 1921C1226.7 1921 1173.3 1921 1120 1921C1066.7 1921 1013.3 1921 960 1921C906.7 1921 853.3 1921 800 1921C746.7 1921 693.3 1921 640 1921C586.7 1921 533.3 1921 480 1921C426.7 1921 373.3 1921 320 1921C266.7 1921 213.3 1921 160 1921C106.7 1921 53.3 1921 26.7 1921L0 1921Z" fill="#00aaa6"></path><path d="M0 1213L26.7 1202.5C53.3 1192 106.7 1171 160 1180.8C213.3 1190.7 266.7 1231.3 320 1233.7C373.3 1236 426.7 1200 480 1213.2C533.3 1226.3 586.7 1288.7 640 1302.7C693.3 1316.7 746.7 1282.3 800 1252.2C853.3 1222 906.7 1196 960 1175.2C1013.3 1154.3 1066.7 1138.7 1120 1152.8C1173.3 1167 1226.7 1211 1280 1251C1333.3 1291 1386.7 1327 1440 1331C1493.3 1335 1546.7 1307 1600 1306.8C1653.3 1306.7 1706.7 1334.3 1760 1331.2C1813.3 1328 1866.7 1294 1893.3 1277L1920 1260L1920 1921L1893.3 1921C1866.7 1921 1813.3 1921 1760 1921C1706.7 1921 1653.3 1921 1600 1921C1546.7 1921 1493.3 1921 1440 1921C1386.7 1921 1333.3 1921 1280 1921C1226.7 1921 1173.3 1921 1120 1921C1066.7 1921 1013.3 1921 960 1921C906.7 1921 853.3 1921 800 1921C746.7 1921 693.3 1921 640 1921C586.7 1921 533.3 1921 480 1921C426.7 1921 373.3 1921 320 1921C266.7 1921 213.3 1921 160 1921C106.7 1921 53.3 1921 26.7 1921L0 1921Z" fill="#46bb94"></path><path d="M0 1452L26.7 1438.8C53.3 1425.7 106.7 1399.3 160 1398.8C213.3 1398.3 266.7 1423.7 320 1440.8C373.3 1458 426.7 1467 480 1446.2C533.3 1425.3 586.7 1374.7 640 1382.3C693.3 1390 746.7 1456 800 1460.2C853.3 1464.3 906.7 1406.7 960 1387.5C1013.3 1368.3 1066.7 1387.7 1120 1378.5C1173.3 1369.3 1226.7 1331.7 1280 1335.3C1333.3 1339 1386.7 1384 1440 1383.5C1493.3 1383 1546.7 1337 1600 1330.2C1653.3 1323.3 1706.7 1355.7 1760 1377.2C1813.3 1398.7 1866.7 1409.3 1893.3 1414.7L1920 1420L1920 1921L1893.3 1921C1866.7 1921 1813.3 1921 1760 1921C1706.7 1921 1653.3 1921 1600 1921C1546.7 1921 1493.3 1921 1440 1921C1386.7 1921 1333.3 1921 1280 1921C1226.7 1921 1173.3 1921 1120 1921C1066.7 1921 1013.3 1921 960 1921C906.7 1921 853.3 1921 800 1921C746.7 1921 693.3 1921 640 1921C586.7 1921 533.3 1921 480 1921C426.7 1921 373.3 1921 320 1921C266.7 1921 213.3 1921 160 1921C106.7 1921 53.3 1921 26.7 1921L0 1921Z" fill="#81c87b"></path><path d="M0 1495L26.7 1517C53.3 1539 106.7 1583 160 1607.3C213.3 1631.7 266.7 1636.3 320 1607.5C373.3 1578.7 426.7 1516.3 480 1521.2C533.3 1526 586.7 1598 640 1619.8C693.3 1641.7 746.7 1613.3 800 1612.2C853.3 1611 906.7 1637 960 1621.5C1013.3 1606 1066.7 1549 1120 1525C1173.3 1501 1226.7 1510 1280 1508.7C1333.3 1507.3 1386.7 1495.7 1440 1521.2C1493.3 1546.7 1546.7 1609.3 1600 1636.2C1653.3 1663 1706.7 1654 1760 1629.3C1813.3 1604.7 1866.7 1564.3 1893.3 1544.2L1920 1524L1920 1921L1893.3 1921C1866.7 1921 1813.3 1921 1760 1921C1706.7 1921 1653.3 1921 1600 1921C1546.7 1921 1493.3 1921 1440 1921C1386.7 1921 1333.3 1921 1280 1921C1226.7 1921 1173.3 1921 1120 1921C1066.7 1921 1013.3 1921 960 1921C906.7 1921 853.3 1921 800 1921C746.7 1921 693.3 1921 640 1921C586.7 1921 533.3 1921 480 1921C426.7 1921 373.3 1921 320 1921C266.7 1921 213.3 1921 160 1921C106.7 1921 53.3 1921 26.7 1921L0 1921Z" fill="#bed066"></path><path d="M0 1651L26.7 1658.3C53.3 1665.7 106.7 1680.3 160 1685C213.3 1689.7 266.7 1684.3 320 1699.7C373.3 1715 426.7 1751 480 1763.5C533.3 1776 586.7 1765 640 1760.8C693.3 1756.7 746.7 1759.3 800 1768.7C853.3 1778 906.7 1794 960 1801.7C1013.3 1809.3 1066.7 1808.7 1120 1797.3C1173.3 1786 1226.7 1764 1280 1760.8C1333.3 1757.7 1386.7 1773.3 1440 1764.2C1493.3 1755 1546.7 1721 1600 1725.5C1653.3 1730 1706.7 1773 1760 1789.5C1813.3 1806 1866.7 1796 1893.3 1791L1920 1786L1920 1921L1893.3 1921C1866.7 1921 1813.3 1921 1760 1921C1706.7 1921 1653.3 1921 1600 1921C1546.7 1921 1493.3 1921 1440 1921C1386.7 1921 1333.3 1921 1280 1921C1226.7 1921 1173.3 1921 1120 1921C1066.7 1921 1013.3 1921 960 1921C906.7 1921 853.3 1921 800 1921C746.7 1921 693.3 1921 640 1921C586.7 1921 533.3 1921 480 1921C426.7 1921 373.3 1921 320 1921C266.7 1921 213.3 1921 160 1921C106.7 1921 53.3 1921 26.7 1921L0 1921Z" fill="#fdd162"></path></svg>