<svg id="visual" viewBox="0 0 1920 1080" width="1920" height="1080" xmlns="http://www.w3.org/2000/svg" xmlns:xlink="http://www.w3.org/1999/xlink" version="1.1"><rect x="0" y="0" width="1920" height="1080" fill="#148dce"></rect><path d="M0 433L24.7 456.2C49.3 479.3 98.7 525.7 147.8 508C197 490.3 246 408.7 295.2 406.5C344.3 404.3 393.7 481.7 443 498.3C492.3 515 541.7 471 590.8 463.2C640 455.3 689 483.7 738.2 480.7C787.3 477.7 836.7 443.3 886 449.7C935.3 456 984.7 503 1034 504.3C1083.3 505.7 1132.7 461.3 1181.8 458.7C1231 456 1280 495 1329.2 515.2C1378.3 535.3 1427.7 536.7 1477 505.7C1526.3 474.7 1575.7 411.3 1624.8 388.2C1674 365 1723 382 1772.2 414.8C1821.3 447.7 1870.7 496.3 1895.3 520.7L1920 545L1920 1081L1895.3 1081C1870.7 1081 1821.3 1081 1772.2 1081C1723 1081 1674 1081 1624.8 1081C1575.7 1081 1526.3 1081 1477 1081C1427.7 1081 1378.3 1081 1329.2 1081C1280 1081 1231 1081 1181.8 1081C1132.7 1081 1083.3 1081 1034 1081C984.7 1081 935.3 1081 886 1081C836.7 1081 787.3 1081 738.2 1081C689 1081 640 1081 590.8 1081C541.7 1081 492.3 1081 443 1081C393.7 1081 344.3 1081 295.2 1081C246 1081 197 1081 147.8 1081C98.7 1081 49.3 1081 24.7 1081L0 1081Z" fill="#00aaa6"></path><path d="M0 576L24.7 584.2C49.3 592.3 98.7 608.7 147.8 605.8C197 603 246 581 295.2 559.8C344.3 538.7 393.7 518.3 443 538.2C492.3 558 541.7 618 590.8 639C640 660 689 642 738.2 624C787.3 606 836.7 588 886 591.3C935.3 594.7 984.7 619.3 1034 633.2C1083.3 647 1132.7 650 1181.8 656.8C1231 663.7 1280 674.3 1329.2 666C1378.3 657.7 1427.7 630.3 1477 624.2C1526.3 618 1575.7 633 1624.8 624.3C1674 615.7 1723 583.3 1772.2 571C1821.3 558.7 1870.7 566.3 1895.3 570.2L1920 574L1920 1081L1895.3 1081C1870.7 1081 1821.3 1081 1772.2 1081C1723 1081 1674 1081 1624.8 1081C1575.7 1081 1526.3 1081 1477 1081C1427.7 1081 1378.3 1081 1329.2 1081C1280 1081 1231 1081 1181.8 1081C1132.7 1081 1083.3 1081 1034 1081C984.7 1081 935.3 1081 886 1081C836.7 1081 787.3 1081 738.2 1081C689 1081 640 1081 590.8 1081C541.7 1081 492.3 1081 443 1081C393.7 1081 344.3 1081 295.2 1081C246 1081 197 1081 147.8 1081C98.7 1081 49.3 1081 24.7 1081L0 1081Z" fill="#46bb94"></path><path d="M0 617L24.7 628.8C49.3 640.7 98.7 664.3 147.8 684C197 703.7 246 719.3 295.2 722.7C344.3 726 393.7 717 443 696.7C492.3 676.3 541.7 644.7 590.8 658.5C640 672.3 689 731.7 738.2 728.3C787.3 725 836.7 659 886 651C935.3 643 984.7 693 1034 697.2C1083.3 701.3 1132.7 659.7 1181.8 633.2C1231 606.7 1280 595.3 1329.2 625C1378.3 654.7 1427.7 725.3 1477 725.7C1526.3 726 1575.7 656 1624.8 635.3C1674 614.7 1723 643.3 1772.2 649.3C1821.3 655.3 1870.7 638.7 1895.3 630.3L1920 622L1920 1081L1895.3 1081C1870.7 1081 1821.3 1081 1772.2 1081C1723 1081 1674 1081 1624.8 1081C1575.7 1081 1526.3 1081 1477 1081C1427.7 1081 1378.3 1081 1329.2 1081C1280 1081 1231 1081 1181.8 1081C1132.7 1081 1083.3 1081 1034 1081C984.7 1081 935.3 1081 886 1081C836.7 1081 787.3 1081 738.2 1081C689 1081 640 1081 590.8 1081C541.7 1081 492.3 1081 443 1081C393.7 1081 344.3 1081 295.2 1081C246 1081 197 1081 147.8 1081C98.7 1081 49.3 1081 24.7 1081L0 1081Z" fill="#81c87b"></path><path d="M0 765L24.7 769.5C49.3 774 98.7 783 147.8 787.7C197 792.3 246 792.7 295.2 806C344.3 819.3 393.7 845.7 443 863C492.3 880.3 541.7 888.7 590.8 865.7C640 842.7 689 788.3 738.2 765.5C787.3 742.7 836.7 751.3 886 757.2C935.3 763 984.7 766 1034 787.5C1083.3 809 1132.7 849 1181.8 855C1231 861 1280 833 1329.2 823.7C1378.3 814.3 1427.7 823.7 1477 818.7C1526.3 813.7 1575.7 794.3 1624.8 790.3C1674 786.3 1723 797.7 1772.2 803C1821.3 808.3 1870.7 807.7 1895.3 807.3L1920 807L1920 1081L1895.3 1081C1870.7 1081 1821.3 1081 1772.2 1081C1723 1081 1674 1081 1624.8 1081C1575.7 1081 1526.3 1081 1477 1081C1427.7 1081 1378.3 1081 1329.2 1081C1280 1081 1231 1081 1181.8 1081C1132.7 1081 1083.3 1081 1034 1081C984.7 1081 935.3 1081 886 1081C836.7 1081 787.3 1081 738.2 1081C689 1081 640 1081 590.8 1081C541.7 1081 492.3 1081 443 1081C393.7 1081 344.3 1081 295.2 1081C246 1081 197 1081 147.8 1081C98.7 1081 49.3 1081 24.7 1081L0 1081Z" fill="#bed066"></path><path d="M0 853L24.7 873.3C49.3 893.7 98.7 934.3 147.8 955.2C197 976 246 977 295.2 979.8C344.3 982.7 393.7 987.3 443 974.8C492.3 962.3 541.7 932.7 590.8 931.7C640 930.7 689 958.3 738.2 973C787.3 987.7 836.7 989.3 886 980.3C935.3 971.3 984.7 951.7 1034 942.3C1083.3 933 1132.7 934 1181.8 941.2C1231 948.3 1280 961.7 1329.2 951.3C1378.3 941 1427.7 907 1477 904.2C1526.3 901.3 1575.7 929.7 1624.8 952.8C1674 976 1723 994 1772.2 1002.2C1821.3 1010.3 1870.7 1008.7 1895.3 1007.8L1920 1007L1920 1081L1895.3 1081C1870.7 1081 1821.3 1081 1772.2 1081C1723 1081 1674 1081 1624.8 1081C1575.7 1081 1526.3 1081 1477 1081C1427.7 1081 1378.3 1081 1329.2 1081C1280 1081 1231 1081 1181.8 1081C1132.7 1081 1083.3 1081 1034 1081C984.7 1081 935.3 1081 886 1081C836.7 1081 787.3 1081 738.2 1081C689 1081 640 1081 590.8 1081C541.7 1081 492.3 1081 443 1081C393.7 1081 344.3 1081 295.2 1081C246 1081 197 1081 147.8 1081C98.7 1081 49.3 1081 24.7 1081L0 1081Z" fill="#fdd162"></path></svg>